<?xml-stylesheet type="text/css" href="../../stylesheets/common.css"?>
<svg xmlns="http://www.w3.org/2000/svg" viewBox="0 0 31.46 31.51"><defs><style>.bullhorn{fill:#3f51b4;}</style></defs><g
        id="Layer_2" data-name="Layer 2"><g id="Layer_1-2" data-name="Layer 1"><path id="Icon_open-bullhorn-2"
                                                                                     data-name="Icon open-bullhorn-2"
                                                                                     class="bullhorn"
                                                                                     d="M27,0V27a1.41,1.41,0,0,0,.41,0h3.64a.41.41,0,0,0,.41-.39V.45A.39.39,0,0,0,31.11,0H27ZM22.5,2.25,9.4,8.86A2.45,2.45,0,0,1,8.55,9H.4a.38.38,0,0,0-.4.35v8.2a.37.37,0,0,0,.35.4.06.06,0,0,0,.06,0H4.5L9.14,30.19a2.41,2.41,0,0,0,3.1,1.13,2.41,2.41,0,0,0,1.12-3.1L10,20.2a1.18,1.18,0,0,1,1.26-1v-.13L22.5,24.7V2.25Z"/></g></g></svg>