<svg xmlns="http://www.w3.org/2000/svg" viewBox="0 0 409 464"><defs><style>.cls-1{fill:#092b5d;}.cls-2{fill:#f9f9f9;}.cls-3{fill:#ff8300;}.cls-4{fill:#ffc700;}.cls-5{fill:#3369bb;}.cls-6{fill:#3f51b4;}</style></defs><g id="Layer_2" data-name="Layer 2"><g id="envelope-right"><polygon class="cls-1" points="206.21 0 0.72 166 0.72 387 408.72 387 408.72 166 206.21 0"/><rect class="cls-2" x="22" y="57" width="366" height="366"/><path class="cls-3" d="M168.89,269.13c-12.24-25.47-5.72-40.06,3.69-53.81a85.61,85.61,0,0,0,12.95-30s8.1,10.53,4.86,27c14.31-15.92,17-41.3,14.85-51,32.34,22.6,46.16,71.54,27.53,107.8,99.07-56,24.65-139.92,11.69-149.37,4.32,9.45,5.14,25.45-3.59,33.21-14.77-56-51.29-67.49-51.29-67.49,4.32,28.88-15.65,60.47-34.92,84.07-.67-11.52-1.4-19.47-7.45-30.49C145.85,160,129.86,177,125.53,198,119.67,226.39,129.93,247.18,168.89,269.13Z"/><path class="cls-4" d="M205.28,161.31c2.16,9.72-.54,35.1-14.85,51,3.24-16.46-4.86-27-4.86-27a85.61,85.61,0,0,1-12.95,30c-9.41,13.75-15.93,28.34-3.69,53.81-1.57-.88,12.67,10.27,36.64,10.57,10.74.13,27.7-10.82,27.24-10.57C251.44,232.85,237.62,183.91,205.28,161.31Z"/><path class="cls-5" d="M0,166,401.73,458.52A21.51,21.51,0,0,1,387.38,464H21.62A21.62,21.62,0,0,1,0,442.38V166Z"/><path class="cls-6" d="M409,166,7.27,458.52A21.51,21.51,0,0,0,21.62,464H387.38A21.62,21.62,0,0,0,409,442.38V166Z"/></g></g></svg>